<svg width="17" height="32" viewBox="0 0 17 32" fill="none" xmlns="http://www.w3.org/2000/svg">
<g clip-path="url(#clip0_157_1518)">
<path d="M15.367 30.4466L15.8926 29.9213C16.024 29.7899 16.0897 29.6148 16.0897 29.3959C16.0897 29.1771 16.024 28.9801 15.8926 28.805L3.01481 16.0005L15.8926 3.19598C16.024 3.02087 16.0897 2.82388 16.0897 2.605C16.0897 2.38612 16.024 2.21102 15.8926 2.07969L15.367 1.55438C15.2356 1.42305 15.0604 1.35738 14.8414 1.35738C14.6224 1.35738 14.4472 1.42305 14.3157 1.55438L0.386685 15.4752C0.255278 15.6065 0.189575 15.7816 0.189575 16.0005C0.189575 16.2193 0.255278 16.3945 0.386685 16.5258L14.3157 30.4466C14.4472 30.5779 14.6224 30.6436 14.8414 30.6436C15.0604 30.6436 15.2356 30.5779 15.367 30.4466Z" fill="#333333"/>
</g>
<defs>
<clipPath id="clip0_157_1518">
<rect width="16" height="31" fill="white" transform="matrix(1 0 0 -1 0.0900269 31.5)"/>
</clipPath>
</defs>
</svg>
