<svg width="17" height="36" viewBox="0 0 17 36" fill="none" xmlns="http://www.w3.org/2000/svg">
<g clip-path="url(#clip0_157_1533)">
<path d="M1.27262 3.55438L0.74699 4.07969C0.615584 4.21102 0.549881 4.38612 0.549881 4.605C0.549881 4.82388 0.615584 5.02087 0.74699 5.19598L13.6248 18.0005L0.74699 30.805C0.615584 30.9801 0.549881 31.1771 0.549881 31.3959C0.549881 31.6148 0.615584 31.7899 0.74699 31.9213L1.27262 32.4466C1.40402 32.5779 1.57923 32.6436 1.79824 32.6436C2.01725 32.6436 2.19246 32.5779 2.32387 32.4466L16.2529 18.5258C16.3843 18.3945 16.45 18.2193 16.45 18.0005C16.45 17.7816 16.3843 17.6065 16.2529 17.4752L2.32387 3.55438C2.19246 3.42305 2.01725 3.35738 1.79824 3.35738C1.57923 3.35738 1.40402 3.42305 1.27262 3.55438Z" fill="#333333"/>
</g>
<defs>
<clipPath id="clip0_157_1533">
<rect width="16.82" height="35" fill="white" transform="matrix(1 0 0 -1 0.0899658 35.5)"/>
</clipPath>
</defs>
</svg>
