<svg width="17" height="32" viewBox="0 0 17 32" fill="none" xmlns="http://www.w3.org/2000/svg">
<g clip-path="url(#clip0_157_1387)">
<path d="M15.3671 30.4461L15.8927 29.9208C16.0241 29.7894 16.0899 29.6143 16.0899 29.3954C16.0899 29.1766 16.0241 28.9796 15.8927 28.8045L3.01493 16L15.8927 3.19549C16.0241 3.02039 16.0899 2.82339 16.0899 2.60451C16.0899 2.38563 16.0241 2.21053 15.8927 2.0792L15.3671 1.55389C15.2357 1.42256 15.0605 1.3569 14.8415 1.3569C14.6225 1.3569 14.4473 1.42256 14.3159 1.55389L0.386807 15.4747C0.2554 15.606 0.189697 15.7811 0.189697 16C0.189697 16.2189 0.2554 16.394 0.386807 16.5253L14.3159 30.4461C14.4473 30.5774 14.6225 30.6431 14.8415 30.6431C15.0605 30.6431 15.2357 30.5774 15.3671 30.4461Z" fill="#333333"/>
</g>
<defs>
<clipPath id="clip0_157_1387">
<rect width="16" height="31" fill="white" transform="matrix(1 0 0 -1 0.0900879 31.5)"/>
</clipPath>
</defs>
</svg>
