<svg width="17" height="36" viewBox="0 0 17 36" fill="none" xmlns="http://www.w3.org/2000/svg">
<g clip-path="url(#clip0_176_7640)">
<path d="M1.27254 3.55389L0.746914 4.0792C0.615508 4.21053 0.549805 4.38563 0.549805 4.60451C0.549805 4.82339 0.615508 5.02039 0.746914 5.19549L13.6247 18L0.746914 30.8045C0.615508 30.9796 0.549805 31.1766 0.549805 31.3954C0.549805 31.6143 0.615508 31.7894 0.746914 31.9208L1.27254 32.4461C1.40395 32.5774 1.57915 32.6431 1.79816 32.6431C2.01717 32.6431 2.19238 32.5774 2.32379 32.4461L16.2529 18.5253C16.3843 18.394 16.45 18.2189 16.45 18C16.45 17.7811 16.3843 17.606 16.2529 17.4747L2.32379 3.55389C2.19238 3.42256 2.01717 3.3569 1.79816 3.3569C1.57915 3.3569 1.40395 3.42256 1.27254 3.55389Z" fill="#333333"/>
</g>
<defs>
<clipPath id="clip0_176_7640">
<rect width="16.82" height="35" fill="white" transform="matrix(1 0 0 -1 0.0898438 35.5)"/>
</clipPath>
</defs>
</svg>
