<svg width="17" height="32" viewBox="0 0 17 32" fill="none" xmlns="http://www.w3.org/2000/svg">
<g clip-path="url(#clip0_176_7625)">
<path d="M15.3669 30.4461L15.8925 29.9208C16.0239 29.7894 16.0896 29.6143 16.0896 29.3954C16.0896 29.1766 16.0239 28.9796 15.8925 28.8045L3.01469 16L15.8925 3.19549C16.0239 3.02039 16.0896 2.82339 16.0896 2.60451C16.0896 2.38563 16.0239 2.21053 15.8925 2.0792L15.3669 1.55389C15.2355 1.42256 15.0603 1.3569 14.8412 1.3569C14.6222 1.3569 14.447 1.42256 14.3156 1.55389L0.386562 15.4747C0.255156 15.606 0.189453 15.7811 0.189453 16C0.189453 16.2189 0.255156 16.394 0.386562 16.5253L14.3156 30.4461C14.447 30.5774 14.6222 30.6431 14.8412 30.6431C15.0603 30.6431 15.2355 30.5774 15.3669 30.4461Z" fill="#333333"/>
</g>
<defs>
<clipPath id="clip0_176_7625">
<rect width="16" height="31" fill="white" transform="matrix(1 0 0 -1 0.0898438 31.5)"/>
</clipPath>
</defs>
</svg>
