<svg width="12" height="11" viewBox="0 0 12 11" fill="none" xmlns="http://www.w3.org/2000/svg">
<path d="M5.083 6.333C5.083 5.91879 4.74721 5.583 4.333 5.583C3.91879 5.583 3.583 5.91879 3.583 6.333H5.083ZM3.583 9.666C3.583 10.0802 3.91879 10.416 4.333 10.416C4.74721 10.416 5.083 10.0802 5.083 9.666H3.583ZM8.417 6.333C8.417 5.91879 8.08121 5.583 7.667 5.583C7.25279 5.583 6.917 5.91879 6.917 6.333H8.417ZM6.917 9.666C6.917 10.0802 7.25279 10.416 7.667 10.416C8.08121 10.416 8.417 10.0802 8.417 9.666H6.917ZM9 0.25C8.58579 0.25 8.25 0.585786 8.25 1C8.25 1.41421 8.58579 1.75 9 1.75V0.25ZM11 1.75C11.4142 1.75 11.75 1.41421 11.75 1C11.75 0.585786 11.4142 0.25 11 0.25V1.75ZM3 1.75C3.41421 1.75 3.75 1.41421 3.75 1C3.75 0.585786 3.41421 0.25 3 0.25V1.75ZM1 0.25C0.585786 0.25 0.25 0.585786 0.25 1C0.25 1.41421 0.585786 1.75 1 1.75V0.25ZM3.583 6.333V9.666H5.083V6.333H3.583ZM6.917 6.333V9.666H8.417V6.333H6.917ZM9 1.75H11V0.25H9V1.75ZM3 0.25H1V1.75H3V0.25Z" fill="black"/>
</svg>
