<svg width="17" height="32" viewBox="0 0 17 32" fill="none" xmlns="http://www.w3.org/2000/svg">
<g clip-path="url(#clip0_157_1102)">
<path d="M15.3669 30.4466L15.8925 29.9213C16.0239 29.7899 16.0896 29.6148 16.0896 29.3959C16.0896 29.1771 16.0239 28.9801 15.8925 28.805L3.01469 16.0005L15.8925 3.19598C16.0239 3.02087 16.0896 2.82388 16.0896 2.605C16.0896 2.38612 16.0239 2.21102 15.8925 2.07969L15.3669 1.55438C15.2355 1.42305 15.0603 1.35738 14.8412 1.35738C14.6222 1.35738 14.447 1.42305 14.3156 1.55438L0.386562 15.4752C0.255156 15.6065 0.189453 15.7816 0.189453 16.0005C0.189453 16.2193 0.255156 16.3945 0.386562 16.5258L14.3156 30.4466C14.447 30.5779 14.6222 30.6436 14.8412 30.6436C15.0603 30.6436 15.2355 30.5779 15.3669 30.4466Z" fill="#333333"/>
</g>
<defs>
<clipPath id="clip0_157_1102">
<rect width="16" height="31" fill="white" transform="matrix(1 0 0 -1 0.0898438 31.5)"/>
</clipPath>
</defs>
</svg>
